<svg width="756" height="756" viewBox="0 0 756 756" fill="none" xmlns="http://www.w3.org/2000/svg">
<path d="M662.952 378C662.952 535.401 535.353 663 377.952 663C220.551 663 92.9521 535.401 92.9521 378C92.9521 220.599 220.551 93 377.952 93C535.353 93 662.952 220.599 662.952 378ZM246.11 378C246.11 450.814 305.138 509.842 377.952 509.842C450.766 509.842 509.794 450.814 509.794 378C509.794 305.186 450.766 246.158 377.952 246.158C305.138 246.158 246.11 305.186 246.11 378Z" fill="#CDA817"/>
<path d="M481.798 78.75H451.445L377.875 23L304.305 78.75H273.952L377.875 0L481.798 78.75Z" fill="#FFD428"/>
<path d="M273.952 677H304.305L377.875 732.75L451.445 677H481.798L377.875 755.75L273.952 677Z" fill="#FFD428"/>
<path d="M239.846 92.8771L218.384 114.34L126.94 126.94L114.34 218.384L92.8771 239.846L110.677 110.677L239.846 92.8771Z" fill="#FFD428"/>
<path d="M515.904 662.873L537.366 641.41L628.81 628.81L641.41 537.366L662.873 515.904L645.073 645.073L515.904 662.873Z" fill="#FFD428"/>
<path d="M78.75 273.952L78.75 304.305L23 377.875L78.75 451.445L78.75 481.798L-4.54261e-06 377.875L78.75 273.952Z" fill="#FFD428"/>
<path d="M677 481.798L677 451.445L732.75 377.875L677 304.305L677 273.952L755.75 377.875L677 481.798Z" fill="#FFD428"/>
<path d="M92.8771 515.904L114.34 537.366L126.941 628.809L218.384 641.41L239.846 662.873L110.677 645.073L92.8771 515.904Z" fill="#CDA817"/>
<path d="M662.873 239.846L641.41 218.384L628.809 126.94L537.366 114.34L515.904 92.8771L645.073 110.677L662.873 239.846Z" fill="#CDA817"/>
<path d="M639.237 492C595.259 592.656 494.82 663 377.952 663C337.363 663 298.756 654.514 263.808 639.222L394.18 508.85C412.244 506.632 429.177 500.763 444.219 492H639.237ZM276.331 294C260.704 312.883 250.241 336.194 247.102 361.771L116.729 492.144C101.437 457.195 92.9521 418.589 92.9521 378C92.9521 348.763 97.3567 320.554 105.535 294H276.331ZM639.174 263.855C654.467 298.804 662.952 337.411 662.952 378C662.952 407.237 658.548 435.446 650.369 462H479.573C495.2 443.116 505.662 419.805 508.802 394.228L639.174 263.855ZM377.952 93C418.541 93 457.147 101.485 492.096 116.777L361.724 247.149C343.66 249.367 326.727 255.237 311.686 264H116.667C160.646 163.343 261.084 93 377.952 93Z" fill="#FFD428"/>
</svg>
